<?xml version="1.0" encoding="UTF-8"?>
<svg xmlns="http://www.w3.org/2000/svg" xmlns:xlink="http://www.w3.org/1999/xlink" width="13px" height="15px" viewBox="0 0 13 14" version="1.1">
<g id="surface1">
<path style=" stroke:none;fill:#fff" d="M 4.410156 0.65625 C 4.410156 0.292969 4.101562 0 3.714844 0 C 3.328125 0 3.019531 0.292969 3.019531 0.65625 L 3.019531 1.75 L 1.855469 1.75 C 0.832031 1.75 0 2.535156 0 3.5 L 0 12.25 C 0 13.214844 0.832031 14 1.855469 14 L 11.144531 14 C 12.167969 14 13 13.214844 13 12.25 L 13 3.5 C 13 2.535156 12.167969 1.75 11.144531 1.75 L 9.980469 1.75 L 9.980469 0.65625 C 9.980469 0.292969 9.671875 0 9.285156 0 C 8.898438 0 8.589844 0.292969 8.589844 0.65625 L 8.589844 1.75 L 4.410156 1.75 Z M 1.394531 5.25 L 11.605469 5.25 L 11.605469 12.25 C 11.605469 12.492188 11.398438 12.6875 11.144531 12.6875 L 1.855469 12.6875 C 1.601562 12.6875 1.394531 12.492188 1.394531 12.25 Z M 1.394531 5.25 "/>
</g>
</svg>
