<?xml version="1.0" encoding="UTF-8"?>
<svg xmlns="http://www.w3.org/2000/svg" xmlns:xlink="http://www.w3.org/1999/xlink" width="13px" height="15px" viewBox="0 0 13 14" version="1.1">
<g id="surface1">
<path style=" stroke:none;fill:#fff;" d="M 2.785156 3.5 C 2.785156 5.433594 4.449219 7 6.5 7 C 8.550781 7 10.214844 5.433594 10.214844 3.5 C 10.214844 1.566406 8.550781 0 6.5 0 C 4.449219 0 2.785156 1.566406 2.785156 3.5 Z M 5.527344 8.972656 L 6.066406 9.820312 L 5.101562 13.210938 L 4.058594 9.191406 C 4 8.972656 3.773438 8.828125 3.539062 8.882812 C 1.507812 9.363281 0 11.097656 0 13.160156 C 0 13.625 0.402344 14 0.890625 14 L 4.714844 14 C 4.714844 14 4.714844 14 4.71875 14 L 8.285156 14 C 8.285156 14 8.285156 14 8.289062 14 L 12.109375 14 C 12.601562 14 13 13.621094 13 13.160156 C 13 11.097656 11.492188 9.363281 9.460938 8.882812 C 9.226562 8.828125 9 8.972656 8.941406 9.191406 L 7.898438 13.210938 L 6.933594 9.820312 L 7.472656 8.972656 C 7.65625 8.679688 7.433594 8.3125 7.074219 8.3125 L 5.929688 8.3125 C 5.570312 8.3125 5.34375 8.683594 5.53125 8.972656 Z M 5.527344 8.972656 "/>
</g>
</svg>
